<svg xmlns="http://www.w3.org/2000/svg" width="1124.428" height="277.011" viewBox="0 0 1124.428 277.011"><g transform="translate(0 0)"><path d="M87.8,277q-.534.013-1.067.013-.352,0-.7-.006-.3.006-.6.006a30.135,30.135,0,0,1-8.6-1.211,38.6,38.6,0,0,1-6.362-2.211c-13.21-5.926-25.038-21.807-33.861-39.973-3.04-5.429-5.761-10.9-8.15-16.118C2.989,161.913-11.017,76.95,10.763,36.611,23.324,13.344,49.97,0,83.869,0c45.009,0,100.005,24.918,113.273,71.1,9.263,32.239-1.313,77.16-19.545,116.271q-2.2,4.833-4.654,9.536a266.618,266.618,0,0,1-21.568,35.439c-20.974,28.8-43.2,44.667-62.589,44.667Q88.292,277.011,87.8,277Zm-2.185-19.848q.725.14,1.462.212c9.979-.983,24.062-10.572,38.025-25.477a80.8,80.8,0,0,0,11.945-64.964c-6.3-26.014-36.386-40.051-61.494-40.051-14.431,0-25.753,4.552-31.063,12.49A35.423,35.423,0,0,0,39.525,153,51.914,51.914,0,0,1,74.966,138.39c14.783,0,26.733,7.509,31.966,20.088,8.587,20.643-4.534,61.249-17.309,82.625A65.578,65.578,0,0,1,79.3,254.718,21.019,21.019,0,0,0,85.614,257.149Zm-38.925-82.1c-7.852,15.238,9.831,55.45,19.2,65.767,3.176-2.933,9.022-10.757,14.981-25.034,8.333-19.964,12-41.3,8.541-49.623-2.822-6.783-9.411-8.207-14.441-8.207C65.292,157.956,52.473,163.828,46.689,175.052ZM155.54,162.2a101.81,101.81,0,0,1,2.819,20.769c2.341-4.852,4.564-9.816,6.636-14.831,5.938-16.2,7.979-30.937,5.241-41.755-8.015-31.666-57.134-55.326-95.7-55.326-18.493,0-32.869,5.212-40.481,14.679-10.372,12.9-11.113,33.154-9.307,50.039a45.967,45.967,0,0,1,4.029-7.49C37.7,114.95,54.747,107.3,75.552,107.3,107.883,107.3,146.9,126.544,155.54,162.2Zm25.737-58.106c.6-10.093-.1-19.424-2.412-27.459-10.264-35.722-56.359-57.068-95-57.068-26.765,0-47.337,9.67-56.439,26.532-3.848,7.127-6.31,16.209-7.579,26.583C31.22,59.008,50.6,51.488,74.539,51.488,114.326,51.488,161.712,72.012,181.277,104.092Z" transform="translate(0)"/><path d="M-151.395,147.744c-10.461-10.3-15.765-26.514-15.765-48.194V58.931c0-21.686,5.346-37.9,15.889-48.2C-140.752.45-126.5-4.76-108.916-4.76c17.441,0,31.58,5.214,42.025,15.5,10.461,10.3,15.765,26.514,15.765,48.194V99.55c0,21.685-5.346,37.9-15.889,48.2-10.519,10.275-24.693,15.486-42.128,15.486C-126.734,163.24-140.95,158.026-151.395,147.744Zm16.946-120.461c-5.695,6.441-8.582,17.317-8.582,32.328v40.847c0,14.226,2.907,24.585,8.641,30.791s14.067,9.223,25.474,9.223c22.965,0,33.661-12.715,33.661-40.014V59.611c0-28.147-11.011-41.83-33.661-41.83C-120.443,17.781-128.795,20.889-134.448,27.283ZM608.909,150.292c-9.65-8.342-15.277-20.642-16.724-36.558l-.375-4.125h23.9l.347,3.4c1.93,18.892,12.56,27.691,33.453,27.691,10.852,0,19.095-2.233,24.5-6.638,5.247-4.275,7.8-10.441,7.8-18.852,0-7.575-1.969-13.043-6.019-16.713-4.275-3.874-11.039-6.616-20.1-8.151L637.991,87.4c-13.419-2.236-23.943-6.967-31.28-14.06-7.541-7.289-11.366-17.557-11.366-30.517,0-14.875,5.113-26.693,15.2-35.125C620.428-.57,633.536-4.76,649.506-4.76c14.743,0,27.036,3.911,36.535,11.625,9.6,7.8,15.374,19.675,17.145,35.3l.477,4.208h-24.02l-.319-3.432c-1.64-17.63-11.188-25.841-30.046-25.841-9.77,0-17.384,2.256-22.629,6.7-5.133,4.354-7.628,10.2-7.628,17.88,0,6.683,1.872,11.68,5.722,15.277,4.049,3.783,10.465,6.476,19.068,8l18.145,3.176c13.861,2.39,24.689,7.315,32.174,14.638,7.681,7.514,11.576,18.12,11.576,31.522,0,15.345-5.277,27.438-15.685,35.946-10.179,8.322-24.193,12.541-41.651,12.541C631.777,162.786,618.5,158.583,608.909,150.292Zm-510.581,0C88.677,141.95,83.05,129.65,81.6,113.735l-.375-4.125h23.9l.347,3.4c1.93,18.892,12.56,27.691,33.453,27.691,10.852,0,19.095-2.233,24.5-6.638,5.247-4.275,7.8-10.441,7.8-18.852,0-7.575-1.969-13.043-6.019-16.713-4.275-3.874-11.039-6.616-20.1-8.151L127.41,87.4c-13.419-2.236-23.943-6.967-31.28-14.06-7.541-7.289-11.366-17.557-11.366-30.517,0-14.875,5.113-26.693,15.2-35.125C109.847-.57,122.955-4.76,138.924-4.76c14.743,0,27.036,3.911,36.535,11.625,9.6,7.8,15.374,19.675,17.145,35.3l.477,4.208h-24.02l-.319-3.432C167.1,25.311,157.556,17.1,138.7,17.1c-9.77,0-17.384,2.256-22.629,6.7-5.133,4.354-7.628,10.2-7.628,17.88,0,6.683,1.872,11.68,5.722,15.277,4.049,3.783,10.465,6.476,19.068,8l18.145,3.176c13.861,2.39,24.689,7.315,32.174,14.638,7.681,7.514,11.576,18.12,11.576,31.522,0,15.345-5.277,27.438-15.685,35.946-10.179,8.322-24.193,12.541-41.652,12.541C121.2,162.786,107.919,158.583,98.327,150.292ZM555.9,161.425,520.5,92.666H488.918v68.758H464.788V-2.718h61.875c15.577,0,28.076,4.187,37.152,12.445,9.178,8.351,13.831,20.248,13.831,35.361,0,12.034-3.263,22.151-9.7,30.07a45.328,45.328,0,0,1-22.127,14.554l37.707,71.713ZM488.918,70.806H525.3c9.121,0,16.208-2.229,21.061-6.623,4.813-4.358,7.153-10.53,7.153-18.868,0-8.631-2.3-14.871-7.016-19.074-4.783-4.259-11.914-6.418-21.2-6.418H488.918ZM339.979,161.425V-2.718H442.625V19.824H364.109v46.9h67.169V89.263H364.109v49.621h78.516v22.541Zm-86.988,0V19.824h-44.7V-2.718H321.6V19.824h-44.7v141.6Zm-249.693,0V92.751L-45.868-2.718h26.482L15.26,67.637,50.119-2.718H76.588L27.428,92.976v68.449Z" transform="translate(418.72 60.76)"/></g></svg>