<svg xmlns="http://www.w3.org/2000/svg" width="300" height="300" viewBox="0 0 300 300"><rect width="300" height="300"/><g transform="translate(68.684 40.5)"><path d="M71.689,218.989q-.436.011-.871.011-.288,0-.574,0-.247,0-.493,0a25.358,25.358,0,0,1-7.02-.957,32.224,32.224,0,0,1-5.194-1.748c-10.786-4.685-20.444-17.24-27.648-31.6-2.482-4.292-4.7-8.62-6.655-12.742C2.44,128.006-9,60.836,8.788,28.944,19.044,10.55,40.8,0,68.48,0c36.751,0,81.656,19.7,92.489,56.209,7.563,25.488-1.072,61-15.959,91.922q-1.8,3.821-3.8,7.539A209.659,209.659,0,0,1,123.6,183.687C106.475,206.459,88.325,219,72.5,219Q72.092,219,71.689,218.989ZM69.905,203.3q.592.11,1.194.168c8.148-.777,19.647-8.358,31.048-20.142a62.218,62.218,0,0,0,9.753-51.359C106.755,111.4,82.191,100.3,61.689,100.3c-11.783,0-21.028,3.6-25.363,9.874a27.457,27.457,0,0,0-4.054,10.781,43.115,43.115,0,0,1,28.938-11.547c12.071,0,21.828,5.936,26.1,15.881,7.012,16.32-3.7,48.423-14.133,65.322a52.06,52.06,0,0,1-8.425,10.764A17.505,17.505,0,0,0,69.905,203.3Zm-31.783-64.9C31.711,150.44,46.15,182.231,53.8,190.387c2.593-2.319,7.367-8.5,12.232-19.791,6.8-15.783,9.8-32.648,6.974-39.231-2.3-5.363-7.684-6.488-11.792-6.488C53.312,124.877,42.845,129.52,38.122,138.393ZM127,128.231a78.087,78.087,0,0,1,2.3,16.42c1.912-3.836,3.727-7.76,5.419-11.725,4.848-12.8,6.515-24.458,4.279-33.011-6.544-25.035-46.651-43.74-78.138-43.74-15.1,0-26.838,4.121-33.053,11.6-8.469,10.2-9.074,26.211-7.6,39.56a35.981,35.981,0,0,1,3.29-5.922c7.283-10.54,21.2-16.585,38.189-16.585C88.088,84.833,119.949,100.043,127,128.231Zm21.015-45.938a63.365,63.365,0,0,0-1.97-21.709c-8.38-28.241-46.018-45.117-77.565-45.117-21.854,0-38.651,7.645-46.083,20.975-3.142,5.635-5.152,12.815-6.188,21.016,9.283-10.809,25.109-16.754,44.653-16.754C93.349,40.706,132.04,56.931,148.015,82.294Z" transform="translate(0)" fill="#fff"/></g></svg>